SplineFontDB: 3.0
FontName: Renner-it-LightItalic
FullName: Renner* Light Italic
FamilyName: Renner* Light
Weight: Light
Copyright: This typeface is licensed under the SIL open font license.
UComments: "2016-6-10: Created with FontForge (http://fontforge.org)"
Version: 002.300
ItalicAngle: -10
UnderlinePosition: -100
UnderlineWidth: 50
Ascent: 800
Descent: 200
InvalidEm: 0
LayerCount: 2
Layer: 0 0 "Back" 1
Layer: 1 0 "Fore" 0
XUID: [1021 31 -699969567 16188444]
FSType: 0
OS2Version: 0
OS2_WeightWidthSlopeOnly: 0
OS2_UseTypoMetrics: 1
CreationTime: 1465610489
ModificationTime: 1514602243
PfmFamily: 33
TTFWeight: 300
TTFWidth: 5
LineGap: 100
VLineGap: 0
OS2TypoAscent: 800
OS2TypoAOffset: 0
OS2TypoDescent: -200
OS2TypoDOffset: 0
OS2TypoLinegap: 100
OS2WinAscent: 900
OS2WinAOffset: 0
OS2WinDescent: 300
OS2WinDOffset: 0
HheadAscent: 900
HheadAOffset: 0
HheadDescent: -200
HheadDOffset: 0
OS2CapHeight: 700
OS2XHeight: 460
OS2Vendor: 'PfEd'
Lookup: 1 0 0 "alt a" { "less simple a"  } ['ss01' ('DFLT' <'dflt' > 'latn' <'dflt' > ) ]
Lookup: 258 0 0 "Lets get our kern on" { "kernin like nobodys business" [150,0,4] } ['kern' ('DFLT' <'dflt' > 'latn' <'dflt' > ) ]
MarkAttachClasses: 1
DEI: 91125
KernClass2: 15 14 "kernin like nobodys business"
 3 A L
 7 D G O Q
 5 F P Y
 5 K X Z
 1 T
 1 U
 3 V W
 9 a c g q s
 7 b e o p
 7 d i j l
 3 f t
 5 h m n
 5 k x z
 7 r v w y
 1 A
 7 C G O Q
 1 T
 1 U
 5 V W Y
 3 X Z
 9 m n p r s
 11 b h i j k l
 13 c d e g o q a
 3 f t
 7 u v w y
 3 x z
 12 period comma

StartChar: H
Encoding: 72 72 0
Width: 685
VWidth: 0
Flags: HMW
LayerCount: 2
Fore
SplineSet
188 346 m 5
 198 400 l 1
 668 400 l 1
 658 346 l 5
 188 346 l 5
673 700 m 1
 728 700 l 1
 605 0 l 1
 550 0 l 1
 673 700 l 1
203 700 m 1
 258 700 l 1
 135 0 l 1
 80 0 l 1
 203 700 l 1
EndSplineSet
EndChar

StartChar: O
Encoding: 79 79 1
Width: 794
VWidth: 0
Flags: HMW
LayerCount: 2
Fore
SplineSet
151.6328125 284.892578125 m 4
 151.6328125 143.887695312 252.173828125 44 400 44 c 4
 585.293945312 44 766.3671875 198.959960938 766.3671875 415.107421875 c 4
 766.3671875 556.112304688 665.826171875 656 518 656 c 4
 332.706054688 656 151.6328125 501.040039062 151.6328125 284.892578125 c 4
522 708 m 4
 702.254691987 708 822.391519289 591.668028078 822.391519289 420.402793119 c 4
 822.391519289 166.456761932 613.950433957 -8 396 -8 c 4
 215.745308013 -8 95.6084807109 108.331971922 95.6084807109 279.597206881 c 4
 95.6084807109 533.543238068 304.049566043 708 522 708 c 4
EndSplineSet
EndChar

StartChar: I
Encoding: 73 73 2
Width: 215
VWidth: 0
Flags: HMW
LayerCount: 2
Fore
SplineSet
203 700 m 1
 258 700 l 5
 135 0 l 5
 80 0 l 1
 203 700 l 1
EndSplineSet
EndChar

StartChar: C
Encoding: 67 67 3
Width: 685
VWidth: 0
Flags: HMW
LayerCount: 2
Fore
SplineSet
154.68886704 290.913343068 m 0
 154.68886704 145.670146737 255.619365147 44 398 44 c 0
 487 44 575 80 639 137 c 1
 627 67 l 1
 559 15 486 -8 394 -8 c 0
 212.280273438 -8 95.7041015625 108.741210938 95.7041015625 290.500976562 c 0
 95.7041015625 533.166015625 302.612304688 708 510 708 c 0
 612 708 677 685 727 633 c 1
 714 563 l 1
 670 620 605 656 506 656 c 4
 337.511427215 656 154.68886704 503.484133845 154.68886704 290.913343068 c 0
EndSplineSet
EndChar

StartChar: E
Encoding: 69 69 4
Width: 515
VWidth: 0
Flags: HMW
LayerCount: 2
Fore
SplineSet
127 0 m 1
 136 52 l 1
 459 52 l 1
 450 0 l 1
 127 0 l 1
241 648 m 1
 250 700 l 1
 573 700 l 1
 564 648 l 1
 241 648 l 1
189 354 m 5
 199 406 l 1
 502 406 l 1
 492 354 l 5
 189 354 l 5
203 700 m 1
 258 700 l 1
 135 0 l 1
 80 0 l 1
 203 700 l 1
EndSplineSet
EndChar

StartChar: F
Encoding: 70 70 6
Width: 470
VWidth: 0
Flags: HMW
LayerCount: 2
Fore
SplineSet
241 648 m 1
 250 700 l 1
 533 700 l 1
 524 648 l 1
 241 648 l 1
189 354 m 5
 199 406 l 5
 472 406 l 5
 462 354 l 5
 189 354 l 5
203 700 m 1
 258 700 l 1
 135 0 l 1
 80 0 l 1
 203 700 l 1
EndSplineSet
EndChar

StartChar: G
Encoding: 71 71 7
Width: 780
VWidth: 0
Flags: HMW
LayerCount: 2
Fore
SplineSet
483 303 m 1
 493 355 l 1
 758 355 l 5
 738 303 l 1
 483 303 l 1
803 355 m 1
 767 151 623 -8 404 -8 c 0
 223.342773438 -8 95.71875 108.852539062 95.71875 285.74609375 c 0
 95.71875 539.34765625 297.454101562 708 520 708 c 1
 516 656 l 1
 332.018518178 656 153.763246224 502.38453973 153.763246224 292.273485188 c 0
 153.763246224 151.513818569 250.886825903 44 408 44 c 0
 591 44 717 182 748 355 c 1
 803 355 l 1
749 526 m 1
 718 600 623 656 516 656 c 1
 520 708 l 1
 649 708 752 658 795 561 c 1
 749 526 l 1
EndSplineSet
EndChar

StartChar: T
Encoding: 84 84 8
Width: 435
VWidth: 0
Flags: HMW
LayerCount: 2
Fore
SplineSet
124 648 m 1
 133 700 l 1
 548 700 l 5
 539 648 l 5
 124 648 l 1
313 700 m 1
 368 700 l 5
 245 0 l 5
 190 0 l 1
 313 700 l 1
EndSplineSet
EndChar

StartChar: L
Encoding: 76 76 9
Width: 420
VWidth: 0
Flags: HMW
LayerCount: 2
Fore
SplineSet
127 0 m 1
 136 52 l 5
 419 52 l 5
 410 0 l 1
 127 0 l 1
203 700 m 1
 258 700 l 1
 135 0 l 1
 80 0 l 1
 203 700 l 1
EndSplineSet
EndChar

StartChar: D
Encoding: 68 68 10
Width: 645
VWidth: 0
Flags: HMW
LayerCount: 2
Fore
SplineSet
127 0 m 1
 136 52 l 1
 269 52 l 1
 265 0 l 1
 127 0 l 1
241 648 m 1
 250 700 l 1
 378 700 l 1
 374 648 l 1
 241 648 l 1
203 700 m 1
 258 700 l 1
 135 0 l 1
 80 0 l 1
 203 700 l 1
269 52 m 1
 450.243142149 52 615.65222287 196.258267401 615.65222287 412.820288661 c 0
 615.65222287 555.655433764 521.375174228 648 374 648 c 1
 378 700 l 5
 563.817382812 700 673.788085938 584.663085938 673.788085938 417.154296875 c 4
 673.788085938 162.015625 478.387695312 0 265 0 c 5
 269 52 l 1
EndSplineSet
EndChar

StartChar: Q
Encoding: 81 81 11
Width: 794
VWidth: 0
Flags: HMW
LayerCount: 2
Fore
SplineSet
151.6328125 284.892578125 m 4
 151.6328125 143.887695312 252.173828125 44 400 44 c 4
 585.293945312 44 766.3671875 198.959960938 766.3671875 415.107421875 c 4
 766.3671875 556.112304688 665.826171875 656 518 656 c 4
 332.706054688 656 151.6328125 501.040039062 151.6328125 284.892578125 c 4
522 708 m 4
 702.254691987 708 822.391519289 591.668028078 822.391519289 420.402793119 c 4
 822.391519289 166.456761932 613.950433957 -8 396 -8 c 4
 215.745308013 -8 95.6084807109 108.331971922 95.6084807109 279.597206881 c 4
 95.6084807109 533.543238068 304.049566043 708 522 708 c 4
449 300 m 1
 521 300 l 1
 758 0 l 1
 686 0 l 1
 449 300 l 1
EndSplineSet
EndChar

StartChar: A
Encoding: 65 65 12
Width: 640
VWidth: 0
Flags: HMW
LayerCount: 2
Fore
SplineSet
174 210 m 1
 183 262 l 1
 553 262 l 1
 544 210 l 1
 174 210 l 1
427 610 m 5
 448 725 l 1
 635 0 l 1
 579 0 l 1
 427 610 l 5
448 725 m 1
 434 610 l 5
 65 0 l 1
 5 0 l 1
 448 725 l 1
EndSplineSet
EndChar

StartChar: R
Encoding: 82 82 13
Width: 526
VWidth: 0
Flags: HMW
LayerCount: 2
Fore
SplineSet
297 294 m 1
 301 346 l 1
 396.088835 346 510.736640527 399.91675192 510.736640527 526.30014829 c 0
 510.736640527 611.352952874 435.218646151 648 354 648 c 1
 358 700 l 1
 483.69140625 700 567.6171875 633.85546875 567.6171875 529.141601562 c 0
 567.6171875 375.557617188 438.516601562 294 297 294 c 1
358 700 m 1025
179 294 m 1
 188 346 l 1
 301 346 l 1
 297 294 l 1
 179 294 l 1
241 648 m 1
 250 700 l 1
 358 700 l 1
 354 648 l 1
 241 648 l 1
258 700 m 1025
254 340 m 5
 316 340 l 1
 496 0 l 1
 434 0 l 5
 254 340 l 5
241 648 m 1
 250 700 l 1
 358 700 l 1
 354 648 l 1
 241 648 l 1
203 700 m 1
 258 700 l 1
 135 0 l 1
 80 0 l 1
 203 700 l 1
EndSplineSet
EndChar

StartChar: V
Encoding: 86 86 14
Width: 640
VWidth: 0
Flags: HMW
LayerCount: 2
Fore
SplineSet
340 91 m 5
 316 -25 l 1
 128 700 l 1
 187 700 l 1
 340 91 l 5
316 -25 m 1
 328 91 l 5
 696 700 l 1
 758 700 l 1
 316 -25 l 1
EndSplineSet
EndChar

StartChar: M
Encoding: 77 77 15
Width: 830
VWidth: 0
Flags: HMW
LayerCount: 2
Fore
SplineSet
260 560 m 1
 258 725 l 1
 459 140 l 5
 426 65 l 1
 260 560 l 1
263 725 m 1
 268 555 l 1
 105 0 l 1
 50 0 l 1
 263 725 l 1
761 555 m 1
 823 725 l 1
 780 0 l 1
 728 0 l 1
 761 555 l 1
823 725 m 1
 775 555 l 1
 426 65 l 1
 414 135 l 5
 823 725 l 1
EndSplineSet
EndChar

StartChar: W
Encoding: 87 87 16
Width: 990
VWidth: 0
Flags: HMW
LayerCount: 2
Fore
SplineSet
735 90 m 1
 701 -25 l 1
 587 620 l 1
 623 725 l 1
 735 90 l 1
701 -25 m 1
 709 95 l 5
 1039 700 l 1
 1103 700 l 1
 701 -25 l 1
309 95 m 1
 281 -25 l 1
 133 700 l 1
 195 700 l 1
 309 95 l 1
281 -25 m 1
 285 90 l 1
 623 725 l 1
 627 620 l 1
 281 -25 l 1
EndSplineSet
EndChar

StartChar: N
Encoding: 78 78 17
Width: 745
VWidth: 0
Flags: HMW
LayerCount: 2
Fore
SplineSet
197 641 m 1
 208 725 l 1
 671 59 l 1
 661 -25 l 5
 197 641 l 1
733 700 m 1
 788 700 l 1
 661 -25 l 1
 625 85 l 1
 733 700 l 1
208 725 m 1
 243 615 l 1
 135 0 l 1
 80 0 l 1
 208 725 l 1
EndSplineSet
EndChar

StartChar: a
Encoding: 97 97 18
Width: 550
VWidth: 0
Flags: HMW
LayerCount: 2
Fore
SplineSet
329 468 m 0
 436 468 503 396 503 278 c 0
 503 118 386 -8 255 -8 c 0
 146 -8 65 62 65 183 c 0
 65 368 193 468 329 468 c 0
118 188 m 0
 118 93 177 42 264 42 c 0
 352 42 473 122 473 271 c 0
 473 370 402 418 331 418 c 0
 221 418 118 340 118 188 c 0
510 460 m 5
 560 460 l 5
 480 0 l 1
 430 0 l 1
 510 460 l 5
EndSplineSet
Substitution2: "less simple a" a.alt
EndChar

StartChar: X
Encoding: 88 88 19
Width: 525
VWidth: 0
Flags: HMW
LayerCount: 2
Fore
SplineSet
158 700 m 1
 219 700 l 1
 515 0 l 1
 454 0 l 1
 158 700 l 1
556 700 m 5
 623 700 l 1
 77 0 l 1
 10 0 l 1
 556 700 l 5
EndSplineSet
EndChar

StartChar: K
Encoding: 75 75 20
Width: 502
VWidth: 0
Flags: HMW
LayerCount: 2
Fore
SplineSet
174 380 m 5
 239 380 l 1
 497 0 l 1
 432 0 l 5
 174 380 l 5
534 700 m 1
 605 700 l 1
 242 370 l 1
 171 370 l 1
 534 700 l 1
203 700 m 1
 258 700 l 1
 135 0 l 1
 80 0 l 1
 203 700 l 1
EndSplineSet
EndChar

StartChar: Y
Encoding: 89 89 21
Width: 535
VWidth: 0
Flags: HMW
LayerCount: 2
Fore
SplineSet
300 350 m 1
 355 350 l 1
 293 0 l 1
 238 0 l 1
 300 350 l 1
128 700 m 1
 190 700 l 5
 337 310 l 5
 289 280 l 1
 128 700 l 1
585 700 m 1
 653 700 l 1
 334 280 l 1
 292 310 l 1
 585 700 l 1
EndSplineSet
EndChar

StartChar: B
Encoding: 66 66 22
Width: 523
VWidth: 0
Flags: HMW
LayerCount: 2
Fore
SplineSet
285 370 m 1
 292 406 l 1
 388.493832035 406 478.17559077 459.311754292 478.17559077 554.106160941 c 0
 478.17559077 614.830495746 431.754673677 648 334 648 c 1
 333 700 l 5
 472.264648438 700 534.771484375 647.547851562 534.771484375 556.022460938 c 4
 534.771484375 423.692382812 424.470885913 370 285 370 c 1
250 0 m 1
 249 52 l 1
 363.444544537 52 457.763595941 102.908371021 457.763595941 229.652574604 c 0
 457.763595941 314.992793555 393.1328125 354 312 354 c 1
 310 395 l 1
 430.812438223 395 515.5859375 348.138671875 515.5859375 223.734375 c 0
 515.5859375 76.849609375 396.985351562 0 250 0 c 1
127 0 m 1
 136 52 l 1
 249 52 l 1
 250 0 l 1
 127 0 l 1
241 648 m 1
 250 700 l 1
 333 700 l 1
 334 648 l 1
 241 648 l 1
189 354 m 1
 199 406 l 1
 312 406 l 1
 312 354 l 1
 189 354 l 1
203 700 m 1
 258 700 l 1
 135 0 l 1
 80 0 l 1
 203 700 l 1
EndSplineSet
EndChar

StartChar: Z
Encoding: 90 90 23
Width: 530
VWidth: 0
Flags: HMW
LayerCount: 2
Fore
SplineSet
10 0 m 1
 89 52 l 1
 509 52 l 1
 500 0 l 1
 10 0 l 1
144 648 m 1
 153 700 l 1
 643 700 l 1
 564 648 l 1
 144 648 l 1
573 700 m 1
 643 700 l 1
 80 0 l 5
 10 0 l 1
 573 700 l 1
EndSplineSet
EndChar

StartChar: o
Encoding: 111 111 24
Width: 514
VWidth: 0
Flags: HMW
LayerCount: 2
Fore
SplineSet
335 468 m 0
 459.380859375 468 529.280273438 389.038085938 529.280273438 267.430664062 c 4
 529.280273438 112.064453125 400.536132812 -8 261 -8 c 0
 136.619140625 -8 66.7197265625 70.9619140625 66.7197265625 192.569335938 c 4
 66.7197265625 347.935546875 195.463867188 468 335 468 c 0
117.788085938 203.435546875 m 0
 117.788085938 106.588867188 164.247070312 43 264 43 c 0
 368.409179688 43 478.172851562 134.700195312 478.172851562 256.139648438 c 0
 478.172851562 353.194335938 430.899414062 417 331 417 c 0
 226.442382812 417 117.788085938 325.004882812 117.788085938 203.435546875 c 0
EndSplineSet
EndChar

StartChar: J
Encoding: 74 74 25
Width: 210
VWidth: 0
Flags: HMW
LayerCount: 2
Fore
SplineSet
119 -60 m 1
 71 -50 l 1
 203 700 l 1
 253 700 l 1
 119 -60 l 1
-122 -126 m 1
 -112 -149 -80 -173 -34 -173 c 0
 16 -173 54 -146 71 -50 c 1
 119 -60 l 1
 100 -169 54 -220 -40 -220 c 4
 -93 -220 -145 -190 -156 -170 c 1
 -122 -126 l 1
EndSplineSet
EndChar

StartChar: t
Encoding: 116 116 26
Width: 210
VWidth: 0
Flags: HMW
LayerCount: 2
Fore
SplineSet
86 460 m 1
 286 460 l 1
 277 410 l 5
 77 410 l 5
 86 460 l 1
189 620 m 1
 239 620 l 1
 130 0 l 1
 80 0 l 1
 189 620 l 1
EndSplineSet
EndChar

StartChar: d
Encoding: 100 100 27
Width: 550
VWidth: 0
Flags: HMW
LayerCount: 2
Fore
SplineSet
329 468 m 4
 436 468 503 396 503 278 c 4
 503 118 386 -8 255 -8 c 4
 146 -8 65 62 65 183 c 4
 65 368 193 468 329 468 c 4
118 188 m 4
 118 93 177 42 264 42 c 4
 352 42 473 122 473 271 c 4
 473 370 402 418 331 418 c 4
 221 418 118 340 118 188 c 4
568 780 m 5
 618 780 l 5
 480 0 l 5
 430 0 l 5
 568 780 l 5
EndSplineSet
EndChar

StartChar: l
Encoding: 108 108 28
Width: 190
VWidth: 0
Flags: HMW
LayerCount: 2
Fore
SplineSet
208 780 m 5
 258 780 l 5
 120 0 l 5
 70 0 l 5
 208 780 l 5
EndSplineSet
EndChar

StartChar: i
Encoding: 105 105 29
Width: 190
VWidth: 0
Flags: HMW
LayerCount: 2
Fore
SplineSet
174 665 m 4
 174 686 191 703 212 703 c 4
 233 703 250 686 250 665 c 4
 250 644 233 627 212 627 c 4
 191 627 174 644 174 665 c 4
151 460 m 1
 201 460 l 1
 120 0 l 1
 70 0 l 1
 151 460 l 1
EndSplineSet
EndChar

StartChar: r
Encoding: 114 114 30
Width: 308
VWidth: 0
Flags: HMW
LayerCount: 2
Fore
SplineSet
201 460 m 1
 120 0 l 1
 70 0 l 1
 151 460 l 1
 201 460 l 1
348 399 m 1
 334 414 316 422 290 422 c 0
 230 422 181 346 169 280 c 1
 150 280 l 1
 169 389 225 468 300 468 c 4
 339 468 361 458 380 436 c 1
 348 399 l 1
EndSplineSet
EndChar

StartChar: c
Encoding: 99 99 31
Width: 463
VWidth: 0
Flags: HMW
LayerCount: 2
Fore
SplineSet
118.391253164 190.758067315 m 0
 118.391253164 104.428991619 174.020403681 42 270 42 c 0
 344 42 406 76 434 118 c 1
 422 51 l 1
 384 13 330 -8 267 -8 c 4
 145.173828125 -8 66.67578125 66.2373046875 66.67578125 188.0546875 c 4
 66.67578125 346.475585938 194.047851562 468 341 468 c 4
 404 468 460 446 485 409 c 1
 473 342 l 1
 459 384 411 418 337 418 c 0
 218.703317155 418 118.391253164 321.253857391 118.391253164 190.758067315 c 0
EndSplineSet
EndChar

StartChar: b
Encoding: 98 98 32
Width: 550
VWidth: 0
Flags: HMW
LayerCount: 2
Fore
SplineSet
258 780 m 5
 120 0 l 5
 70 0 l 5
 208 780 l 5
 258 780 l 5
301 -8 m 4
 194.14453125 -8 127.596679688 64.3447265625 127.596679688 182.177734375 c 4
 127.596679688 342.5859375 243.731445312 468 375 468 c 4
 484.365234375 468 565.814453125 398.340820312 565.814453125 277.462890625 c 4
 565.814453125 92.908203125 436.629882812 -8 301 -8 c 4
512.237304688 273.965820312 m 4
 512.237304688 369.09375 452.979870222 418 366 418 c 4
 278.375927433 418 157.301618314 337.782513446 157.301618314 189.271552762 c 4
 157.301618314 90.6274509804 228.150809157 42 299 42 c 4
 408.828403849 42 512.237304688 122.052734375 512.237304688 273.965820312 c 4
EndSplineSet
EndChar

StartChar: p
Encoding: 112 112 33
Width: 550
VWidth: 0
Flags: HMW
LayerCount: 2
Fore
SplineSet
302 -8 m 0
 195 -8 128 64 128 182 c 0
 128 342 245 468 376 468 c 0
 485 468 566 398 566 277 c 0
 566 92 438 -8 302 -8 c 0
513 272 m 0
 513 367 454 418 367 418 c 0
 279 418 158 338 158 189 c 0
 158 90 229 42 300 42 c 0
 410 42 513 120 513 272 c 0
81 -220 m 1
 31 -220 l 1
 151 460 l 1
 201 460 l 1
 81 -220 l 1
EndSplineSet
EndChar

StartChar: q
Encoding: 113 113 34
Width: 550
VWidth: 0
Flags: HMW
LayerCount: 2
Fore
SplineSet
330 468 m 0
 436.85546875 468 503.403320312 395.655273438 503.403320312 277.822265625 c 0
 503.403320312 117.4140625 387.268554688 -8 256 -8 c 0
 146.634765625 -8 65.185546875 61.6591796875 65.185546875 182.537109375 c 0
 65.185546875 367.091796875 194.370117188 468 330 468 c 0
118.762695312 186.034179688 m 0
 118.762695312 90.90625 178.020507812 42 265 42 c 0
 352.624023438 42 473.698242188 122.217773438 473.698242188 270.728515625 c 0
 473.698242188 369.372070312 402.849609375 418 332 418 c 0
 222.171875 418 118.762695312 337.947265625 118.762695312 186.034179688 c 0
391 -220 m 1
 511 460 l 1
 561 460 l 1
 441 -220 l 1
 391 -220 l 1
EndSplineSet
EndChar

StartChar: h
Encoding: 104 104 35
Width: 485
VWidth: 0
Flags: HMW
LayerCount: 2
Fore
SplineSet
258 780 m 5
 120 0 l 5
 70 0 l 5
 208 780 l 5
 258 780 l 5
416 290 m 6
 419.06211332 307.901585564 420.959094701 324.471591769 420.959094701 339.344093894 c 4
 420.959094701 394.61181795 400.97848983 418 336 418 c 4
 256 418 182 356 169 280 c 5
 148 280 l 5
 167 389 240 468 345 468 c 4
 423.27734375 468 473.534127297 431.732834273 473.534127297 356.450910211 c 4
 473.534127297 339.726703656 471.696691312 320.947917436 468 300 c 6
 415 0 l 5
 365 0 l 5
 416 290 l 6
EndSplineSet
EndChar

StartChar: n
Encoding: 110 110 36
Width: 485
VWidth: 0
Flags: HMW
LayerCount: 2
Fore
SplineSet
416 290 m 6
 419.06211332 307.901585564 420.959094701 324.471591769 420.959094701 339.344093894 c 4
 420.959094701 394.61181795 400.97848983 418 336 418 c 4
 256 418 182 356 169 280 c 5
 148 280 l 5
 167 389 240 468 345 468 c 4
 423.27734375 468 473.534127297 431.732834273 473.534127297 356.450910211 c 4
 473.534127297 339.726703656 471.696691312 320.947917436 468 300 c 6
 415 0 l 5
 365 0 l 5
 416 290 l 6
201 460 m 5
 120 0 l 5
 70 0 l 5
 151 460 l 5
 201 460 l 5
EndSplineSet
EndChar

StartChar: m
Encoding: 109 109 37
Width: 740
VWidth: 0
Flags: HMW
LayerCount: 2
Fore
SplineSet
723 300 m 1
 670 0 l 1
 620 0 l 1
 671 290 l 1
 723 300 l 1
723 300 m 1
 671 290 l 1
 684 366 673 418 596 418 c 0
 521 418 457 356 444 280 c 1
 418 280 l 1
 437 389 505 468 605 468 c 4
 702 468 744 419 723 300 c 1
448 300 m 1
 395 0 l 1
 345 0 l 1
 396 290 l 1
 448 300 l 1
201 460 m 1
 120 0 l 1
 70 0 l 1
 151 460 l 1
 201 460 l 1
448 300 m 1
 396 290 l 1
 409 366 398 418 321 418 c 0
 246 418 182 356 169 280 c 1
 148 280 l 1
 167 389 230 468 330 468 c 4
 427 468 469 419 448 300 c 1
EndSplineSet
EndChar

StartChar: k
Encoding: 107 107 38
Width: 400
VWidth: 0
Flags: MW
LayerCount: 2
Fore
SplineSet
156 270 m 5
 218 270 l 5
 410 0 l 5
 348 0 l 5
 156 270 l 5
393 460 m 5
 471 460 l 5
 218 270 l 5
 140 270 l 5
 393 460 l 5
208 780 m 5
 258 780 l 5
 120 0 l 5
 70 0 l 5
 208 780 l 5
EndSplineSet
EndChar

StartChar: u
Encoding: 117 117 39
Width: 485
VWidth: 0
Flags: HMW
LayerCount: 2
Fore
SplineSet
150 170 m 2
 146.9375 152.098632812 145.041015625 135.528320312 145.041015625 120.65625 c 0
 145.041015625 65.3876953125 165.021484375 42 230 42 c 0
 310 42 384 104 397 180 c 1
 418 180 l 1
 399 71 326 -8 221 -8 c 0
 142.72265625 -8 92.4658203125 28.267578125 92.4658203125 103.548828125 c 0
 92.4658203125 120.2734375 94.3037109375 139.051757812 98 160 c 2
 151 460 l 1
 201 460 l 1
 150 170 l 2
365 0 m 1
 446 460 l 1
 496 460 l 1
 415 0 l 1
 365 0 l 1
EndSplineSet
EndChar

StartChar: e
Encoding: 101 101 40
Width: 491
VWidth: 0
Flags: HMW
LayerCount: 2
Fore
SplineSet
120 223 m 1
 128 268 l 1
 487 268 l 1
 499 223 l 1
 120 223 l 1
71 230 m 1
 108 270 l 1
 129 260 l 1
 124 230 l 1
 71 230 l 1
499 223 m 1
 453 250 l 1
 454.997058798 261.449803776 456.001488017 272.881882023 456.001488017 284.098000779 c 0
 456.001488017 357.126663149 413.420000173 421 325 421 c 0
 225 421 144 346 129 260 c 1
 71 230 l 1
 122 230 l 1
 119.519228184 216.159904604 118.299988034 202.711906888 118.299988034 189.789559009 c 4
 118.299988034 98.7408495355 172.362363147 41 268 41 c 0
 330 41 399 78 443 139 c 1
 477 107 l 1
 419 37 349 -8 265 -8 c 0
 148.887695312 -8 66.5908203125 68.822265625 66.5908203125 182.135742188 c 0
 66.5908203125 356.854492188 189.985351562 468 324 468 c 0
 435.252929688 468 507.291015625 389.756835938 507.291015625 285.4609375 c 0
 507.291015625 265.489257812 506.548721438 241.871803596 499 223 c 1
EndSplineSet
EndChar

StartChar: g
Encoding: 103 103 41
Width: 550
VWidth: 0
Flags: HMW
LayerCount: 2
Fore
SplineSet
329 468 m 0
 436 468 503 396 503 278 c 0
 503 118 386 -8 255 -8 c 0
 146 -8 65 62 65 183 c 0
 65 368 193 468 329 468 c 0
118 188 m 0
 118 93 177 42 264 42 c 0
 352 42 473 122 473 271 c 0
 473 370 402 418 331 418 c 0
 221 418 118 340 118 188 c 0
39 -30 m 1
 89 -30 l 1
 87.0577403936 -41.2373591516 85.05859375 -52.244140625 85.05859375 -62.8671875 c 4
 85.05859375 -128.817382812 124.566947048 -180 215 -180 c 0
 320 -180 409 -120 432 10 c 1
 482 10 l 1
 454 -149 346 -230 216 -230 c 0
 100.889648438 -230 35.0184402965 -168.283954024 35.0184402965 -73.4500205239 c 0
 35.0184402965 -59.6395837534 36.3305641934 -45.1268029039 39 -30 c 1
432 10 m 1
 511 460 l 1
 561 460 l 1
 482 10 l 1
 432 10 l 1
EndSplineSet
EndChar

StartChar: f
Encoding: 102 102 42
Width: 256
VWidth: 0
Flags: HMW
LayerCount: 2
Fore
SplineSet
106 460 m 1
 321 460 l 1
 312 410 l 1
 97 410 l 1
 106 460 l 1
181 630 m 1
 229 620 l 1
 120 0 l 1
 70 0 l 1
 181 630 l 1
371 706 m 5
 359 726 343 736 318 736 c 4
 263 736 241 686 229 620 c 5
 181 630 l 5
 197 719 240 788 317 788 c 4
 360 788 396 766 407 746 c 5
 371 706 l 5
EndSplineSet
EndChar

StartChar: s
Encoding: 115 115 43
Width: 390
VWidth: 0
Flags: HMW
LayerCount: 2
Fore
SplineSet
103 160 m 5
 105 104 139 39 218 39 c 4
 283.63671875 39 327.747070312 73.2265625 327.747070312 131.0859375 c 0
 327.747070312 177.528320312 281.155273438 204.076171875 237 223 c 0
 183.591796875 245.630859375 126.182617188 271.456054688 126.182617188 344.50390625 c 0
 126.182617188 434.301757812 208.067382812 468 273 468 c 0
 362 468 402 419 411 368 c 1
 367 348 l 1
 354 386 328 421 273 421 c 0
 222.661132812 421 177.095703125 400.260742188 177.095703125 348.614257812 c 0
 177.095703125 298.014648438 228.045898438 284.376953125 271 263 c 0
 325.513671875 235.87109375 378.041015625 206.359375 378.041015625 135.05078125 c 0
 378.041015625 30.3818359375 297.698242188 -8 216 -8 c 0
 111 -8 61 69 60 144 c 1
 103 160 l 5
EndSplineSet
EndChar

StartChar: y
Encoding: 121 121 44
Width: 440
VWidth: 0
Flags: HMW
LayerCount: 2
Fore
SplineSet
212 -6 m 1
 271 104 l 0
 521 460 l 1
 101 -220 l 1
 44 -220 l 5
 221 65 l 4
 212 -6 l 1
461 460 m 1
 521 460 l 1
 214 -35 l 1
 229 75 l 1
 461 460 l 1
81 460 m 1
 135 460 l 1
 235 75 l 1
 214 -35 l 1
 81 460 l 1
EndSplineSet
EndChar

StartChar: w
Encoding: 119 119 45
Width: 670
VWidth: 0
Flags: HMW
LayerCount: 2
Fore
SplineSet
685 460 m 1
 746 460 l 1
 469 -32 l 1
 470 65 l 1
 685 460 l 1
386 395 m 5
 421 485 l 1
 500 65 l 1
 467 -32 l 5
 386 395 l 5
421 485 m 1
 425 395 l 1
 189 -32 l 1
 190 65 l 1
 421 485 l 1
86 460 m 1
 143 460 l 1
 218 65 l 1
 189 -32 l 1
 86 460 l 1
EndSplineSet
EndChar

StartChar: v
Encoding: 118 118 46
Width: 430
VWidth: 0
Flags: HMW
LayerCount: 2
Fore
SplineSet
447 460 m 1
 506 460 l 1
 211 -25 l 1
 218 72 l 1
 447 460 l 1
86 460 m 1
 143 460 l 1
 236 72 l 5
 211 -25 l 1
 86 460 l 1
EndSplineSet
EndChar

StartChar: x
Encoding: 120 120 47
Width: 400
VWidth: 0
Flags: HMW
LayerCount: 2
Fore
SplineSet
96 460 m 1
 154 460 l 1
 395 0 l 1
 337 0 l 1
 96 460 l 1
402 460 m 1
 466 460 l 1
 69 0 l 5
 5 0 l 1
 402 460 l 1
EndSplineSet
EndChar

StartChar: z
Encoding: 122 122 48
Width: 425
VWidth: 0
Flags: HMW
LayerCount: 2
Fore
SplineSet
94 50 m 1
 409 50 l 1
 400 0 l 1
 5 0 l 1
 94 50 l 1
106 460 m 1
 501 460 l 1
 422 410 l 1
 97 410 l 1
 106 460 l 1
434 460 m 1
 501 460 l 1
 72 0 l 5
 5 0 l 1
 434 460 l 1
EndSplineSet
EndChar

StartChar: j
Encoding: 106 106 49
Width: 190
VWidth: 0
Flags: HMW
LayerCount: 2
Fore
SplineSet
-81 -138 m 1
 -69 -158 -53 -168 -28 -168 c 0
 27 -168 49 -118 61 -52 c 1
 109 -62 l 1
 93 -151 50 -220 -27 -220 c 0
 -70 -220 -106 -198 -117 -178 c 1
 -81 -138 l 1
174 665 m 0
 174 686 191 703 212 703 c 0
 233 703 250 686 250 665 c 0
 250 644 233 627 212 627 c 0
 191 627 174 644 174 665 c 0
109 -62 m 1
 61 -52 l 1
 151 460 l 1
 201 460 l 1
 109 -62 l 1
EndSplineSet
EndChar

StartChar: P
Encoding: 80 80 50
Width: 506
VWidth: 0
Flags: HMW
LayerCount: 2
Fore
SplineSet
297 294 m 5
 301 346 l 5
 396.088835 346 510.736640527 399.91675192 510.736640527 526.30014829 c 4
 510.736640527 611.352952874 435.218646151 648 354 648 c 5
 358 700 l 5
 483.69140625 700 567.6171875 633.85546875 567.6171875 529.141601562 c 4
 567.6171875 375.557617188 438.516601562 294 297 294 c 5
179 294 m 1
 188 346 l 1
 301 346 l 1
 297 294 l 1
 179 294 l 1
241 648 m 1
 250 700 l 1
 358 700 l 5
 354 648 l 1
 241 648 l 1
203 700 m 1
 258 700 l 1
 135 0 l 1
 80 0 l 1
 203 700 l 1
EndSplineSet
EndChar

StartChar: U
Encoding: 85 85 51
Width: 596
VWidth: 0
Flags: HMW
LayerCount: 2
Fore
SplineSet
589 700 m 1
 644 700 l 1
 562 230 l 1
 507 230 l 1
 589 700 l 1
198 700 m 1
 253 700 l 1
 171 230 l 1
 116 230 l 1
 198 700 l 1
301 -10 m 4
 166 -10 90 81 116 230 c 1
 171 230 l 1
 152 124 191 45 306 45 c 4
 406 45 488 124 507 230 c 1
 562 230 l 1
 536 81 441 -10 301 -10 c 4
EndSplineSet
EndChar

StartChar: S
Encoding: 83 83 52
Width: 528
VWidth: 0
Flags: HMW
LayerCount: 2
Fore
SplineSet
524 525 m 1
 514 583 470 654 383 654 c 0
 294.756835938 654 236.435546875 606.827148438 236.435546875 527.2265625 c 0
 236.435546875 462.135742188 301.418945312 417.237304688 374 386 c 0
 435.45703125 359.790039062 518.967773438 299.161132812 518.967773438 203.3203125 c 0
 518.967773438 81.185546875 436.383789062 -8 296 -8 c 0
 181 -8 97 76 79 193 c 1
 133 214 l 1
 153 116 199 48 300 48 c 0
 392.795898438 48 461.372070312 109.67578125 461.372070312 198.116210938 c 0
 461.372070312 281.741210938 383.092773438 317.873046875 317 349 c 4
 247.775390625 381.6015625 178.776367188 441.919921875 178.776367188 521.442382812 c 4
 178.776367188 645.763671875 266.131835938 708 382 708 c 0
 501 708 571 621 576 550 c 1
 524 525 l 1
EndSplineSet
EndChar

StartChar: at
Encoding: 64 64 53
Width: 770
VWidth: 0
Flags: HMW
LayerCount: 2
Fore
SplineSet
368 42 m 1
 448 42 520 58 593 95 c 1
 612 51 l 1
 547 22 488 -8 364 -8 c 1
 368 42 l 1
461 528 m 0
 530.389648438 528 570.460258978 482.016559086 570.460258978 416.707497993 c 0
 570.460258978 255.386968963 455.940429688 152 365 152 c 0
 290.36328125 152 246.5234375 205.821289062 246.5234375 281.30078125 c 4
 246.5234375 430.600585938 372.650390625 528 461 528 c 0
293.815889272 285.770672596 m 0
 293.815889272 238.678412096 319.418340286 197 375 197 c 0
 437.623310279 197 538 286.577307665 538 401.287037037 c 0
 538 450.361111111 513 483 463 483 c 0
 387.588578679 483 293.815889272 394.807989432 293.815889272 285.770672596 c 0
525 708 m 0
 714.37890625 708 809.069335938 577.063476562 809.069335938 444.2890625 c 0
 809.069335938 252.663085938 669.834960938 142 578 142 c 0
 525.100585938 142 498.512381913 170.865869945 498.512381913 212.881119963 c 0
 498.512381913 235.466758815 508.41673595 263.400641569 507.227239695 263.400641569 c 0
 505.678239672 263.400641569 500.666204773 257.59824732 499.540834379 257.59824732 c 0
 499.395626149 257.59824732 499.315127494 257.694852126 499.315127494 257.912991862 c 0
 499.315127494 258.262495915 499.521771821 258.923986596 500 260 c 2
 592 520 l 1
 642 520 l 1
 558 279 l 2
 553.942811754 264.79984114 549.964684152 249.934549861 549.964684152 231.718411428 c 0
 549.964684152 210.666462871 556.649110641 189 585 189 c 0
 652.588694197 189 758.49339062 286.230300042 758.49339062 440.60700933 c 0
 758.49339062 561.247858191 678.803710938 658 521 658 c 0
 319.145507812 658 136.549804688 487.237304688 136.549804688 271.672851562 c 0
 136.549804688 129.75 197.434570312 42 368 42 c 5
 364 -8 l 1
 177.95703125 -8 83.830078125 91.0654296875 83.830078125 265.28125 c 0
 83.830078125 513.59765625 294.958007812 708 525 708 c 0
EndSplineSet
EndChar

StartChar: period
Encoding: 46 46 54
Width: 300
VWidth: 0
Flags: HMW
LayerCount: 2
Fore
SplineSet
120 27 m 4
 120 49 135 67 160 67 c 4
 185 67 200 49 200 27 c 4
 200 5 185 -13 160 -13 c 4
 135 -13 120 5 120 27 c 4
EndSplineSet
EndChar

StartChar: comma
Encoding: 44 44 55
Width: 308
VWidth: 0
Flags: HMW
LayerCount: 2
Fore
SplineSet
189 103 m 1
 242 80 l 1
 67 -163 l 5
 34 -149 l 1
 189 103 l 1
EndSplineSet
EndChar

StartChar: exclam
Encoding: 33 33 59
Width: 302
VWidth: 0
Flags: HMW
LayerCount: 2
Fore
SplineSet
244 700 m 1
 308 700 l 1
 208 200 l 1
 168 200 l 1
 244 700 l 1
EndSplineSet
Refer: 54 46 S 1 0 0 1 -4 0 2
EndChar

StartChar: quotesingle
Encoding: 39 39 60
Width: 295
VWidth: 0
Flags: HMW
LayerCount: 2
Fore
SplineSet
300 700 m 1
 368 700 l 1
 210 400 l 5
 171 400 l 1
 300 700 l 1
EndSplineSet
EndChar

StartChar: numbersign
Encoding: 35 35 61
Width: 605
VWidth: 0
Flags: HMW
LayerCount: 2
Fore
SplineSet
146 460 m 1
 154 505 l 1
 649 505 l 1
 641 460 l 1
 146 460 l 1
80 200 m 1
 88 245 l 1
 583 245 l 1
 575 200 l 1
 80 200 l 1
606 700 m 5
 653 700 l 1
 360 0 l 1
 313 0 l 5
 606 700 l 5
368 700 m 1
 415 700 l 1
 122 0 l 1
 75 0 l 1
 368 700 l 1
EndSplineSet
EndChar

StartChar: hyphen
Encoding: 45 45 62
Width: 210
VWidth: 0
Flags: HMW
LayerCount: 2
Fore
SplineSet
46 215 m 1
 48 260 l 5
 248 260 l 5
 246 215 l 1
 46 215 l 1
EndSplineSet
EndChar

StartChar: bar
Encoding: 124 124 64
Width: 244
VWidth: 0
Flags: HMW
LayerCount: 2
Fore
SplineSet
238 785 m 1
 282 785 l 5
 106 -215 l 5
 62 -215 l 1
 238 785 l 1
EndSplineSet
EndChar

StartChar: zero
Encoding: 48 48 65
Width: 600
VWidth: 0
Flags: HMW
LayerCount: 2
Fore
SplineSet
159.125 253.956054688 m 4
 159.125 140.658203125 211.485693956 47 308 47 c 0
 446.218690369 47 565.520507812 251.302734375 565.520507812 450.956054688 c 4
 565.520507812 566.608398438 511.193690994 653 415 653 c 0
 280.549247977 653 159.125 460.534179688 159.125 253.956054688 c 4
420 708 m 4
 540.3515625 708 620.997300992 603.921407082 620.997300992 447.722256744 c 0
 620.997300992 197.248221479 473.006835938 -8 304 -8 c 4
 183.6484375 -8 103.002699008 96.0785929181 103.002699008 252.277743256 c 0
 103.002699008 502.751778521 250.993164062 708 420 708 c 4
EndSplineSet
EndChar

StartChar: one
Encoding: 49 49 66
Width: 440
VWidth: 0
Flags: HMW
LayerCount: 2
Fore
SplineSet
204 592 m 5
 215 650 l 1
 435 710 l 1
 399 647 l 5
 204 592 l 5
373 670 m 1
 435 710 l 1
 310 0 l 1
 255 0 l 1
 373 670 l 1
EndSplineSet
EndChar

StartChar: two
Encoding: 50 50 67
Width: 544
VWidth: 0
Flags: HMW
LayerCount: 2
Fore
SplineSet
64 0 m 1
 144 55 l 1
 524 55 l 1
 514 0 l 1
 64 0 l 1
439 294 m 6
 96 0 l 1
 20 0 l 1
 403 334 l 2
 485 405 539.747078239 446.213295041 539.747078239 546.079956952 c 0
 539.747078239 613.974878174 489.34667227 654 410 654 c 0
 307 654 221 572 201 460 c 1
 146 460 l 1
 171 599 269 709 416 709 c 0
 545.547851562 709 598.5390625 628.139648438 598.5390625 545.041992188 c 0
 598.5390625 419.7578125 511.572265625 358.875976562 439 294 c 6
EndSplineSet
EndChar

StartChar: four
Encoding: 52 52 68
Width: 593
VWidth: 0
Flags: HMW
LayerCount: 2
Fore
SplineSet
45 140 m 1
 124 190 l 1
 597 190 l 1
 588 140 l 1
 45 140 l 1
117 149 m 1
 45 140 l 1
 585 750 l 1
 545 629 l 1
 117 149 l 1
511 610 m 1
 585 750 l 1
 453 0 l 1
 403 0 l 1
 511 610 l 1
EndSplineSet
EndChar

StartChar: slash
Encoding: 47 47 69
Width: 615
VWidth: 0
Flags: HMW
LayerCount: 2
Fore
SplineSet
663 700 m 1
 723 700 l 1
 49 -150 l 5
 -11 -150 l 1
 663 700 l 1
EndSplineSet
EndChar

StartChar: backslash
Encoding: 92 92 70
Width: 515
VWidth: 0
Flags: HMW
LayerCount: 2
Fore
SplineSet
261 700 m 1
 316 700 l 1
 500 0 l 1
 445 0 l 5
 261 700 l 1
EndSplineSet
EndChar

StartChar: eight
Encoding: 56 56 71
Width: 546
VWidth: 0
Flags: HMW
LayerCount: 2
Fore
SplineSet
398 708 m 0
 491.526627316 708 558.078125 649.048828125 558.078125 560.227539062 c 0
 558.078125 425.366210938 456.769017445 360 336 360 c 0
 235.34061195 360 175.287109375 415.203125 175.287109375 501.584960938 c 0
 175.287109375 636.182617188 283.28260126 708 398 708 c 0
227.166719182 504.021033172 m 0
 227.166719182 440.103423229 280.672736338 400 344 400 c 0
 422.206685857 400 505.609113418 458.309107388 505.609113418 553.3983428 c 0
 505.609113418 624.774539753 451.259968643 658 389 658 c 0
 317.991691689 658 227.166719182 608.265054822 227.166719182 504.021033172 c 0
341 385 m 0
 443.46827602 385 523.706054688 322.600585938 523.706054688 219.923828125 c 4
 523.706054688 88.7529296875 406.282601233 -8 272 -8 c 0
 160.775498436 -8 90.7216796875 68.505859375 90.7216796875 163.475585938 c 0
 90.7216796875 306.6484375 220.455493053 385 341 385 c 0
145.08172025 168.05745293 m 0
 145.08172025 90.4707775536 200.423165737 42 280 42 c 0
 372.980626152 42 470.327274781 113.177393035 470.327274781 226.046107752 c 0
 470.327274781 297.689419494 414.592688201 345 334 345 c 0
 235.384066941 345 145.08172025 275.942186973 145.08172025 168.05745293 c 0
EndSplineSet
EndChar

StartChar: three
Encoding: 51 51 73
Width: 536
VWidth: 0
Flags: HMW
LayerCount: 2
Fore
SplineSet
305 350 m 1
 311 385 l 1
 438.924870969 385 494.742638073 462.49118047 494.742638073 550.354423498 c 0
 494.742638073 616.504743748 450.745117188 658 379 658 c 4
 307 658 243 607 226 526 c 1
 178 526 l 1
 197 635 286 708 383 708 c 4
 471.750976562 708 547.290039062 650.0390625 547.290039062 551.619140625 c 0
 547.290039062 421.703125 456.91789187 350 305 350 c 1
272 -8 m 0
 161.692382812 -8 89.6663924592 57.4140245788 89.6663924592 147.696879318 c 0
 89.6663924592 159.722000155 90.7667694566 172.188308988 93 185 c 1
 144 185 l 1
 142.323673958 175.301256473 141.493236033 165.874917593 141.493236033 156.794800945 c 0
 141.493236033 90.04144015 181.375 42 275 42 c 4
 369.219726562 42 461.366230901 102.755225668 461.366230901 217.067169495 c 0
 461.366230901 282.646589501 417.447712447 340 303 340 c 1
 309 375 l 1
 437.160948292 375 512.979492188 322.345703125 512.979492188 222.202148438 c 0
 512.979492188 70.25390625 396.236328125 -8 272 -8 c 0
EndSplineSet
EndChar

StartChar: five
Encoding: 53 53 74
Width: 579
VWidth: 0
Flags: HMW
LayerCount: 2
Fore
SplineSet
315 700 m 1
 366 695 l 5
 244 412 l 5
 158 327 l 1
 315 700 l 1
315 700 m 1
 645 700 l 1
 637 650 l 1
 307 650 l 1
 315 700 l 1
311 -8 m 0
 177 -8 103 73 78 152 c 1
 125 178 l 1
 145 118 208 45 310 45 c 0
 420.575281009 45 519.36274009 124.931779786 519.36274009 267.708079416 c 0
 519.36274009 360.395112335 453.747698239 413 374 413 c 0
 307 413 244 383 158 327 c 1
 209 393 l 1
 266 443 318 468 387 468 c 0
 490.478515625 468 579.201171875 392.4609375 579.201171875 271.844726562 c 0
 579.201171875 85.1015625 447.477539062 -8 311 -8 c 0
EndSplineSet
EndChar

StartChar: six
Encoding: 54 54 75
Width: 556
VWidth: 0
Flags: HMW
LayerCount: 2
Fore
SplineSet
443 700 m 1
 513 700 l 1
 220 375 l 1
 166 387 l 1
 443 700 l 1
166 387 m 0
 176 398 181 401 186 401 c 0
 191 401 195 398 203 398 c 0
 207 398 212 399 219 402 c 1
 238 430 307 462 390 462 c 0
 491 462 557 391 557 280 c 0
 557 105 438 -8 282 -8 c 0
 157 -8 81 65 81 180 c 0
 81 268 121 336 166 387 c 0
139 185 m 0
 139 98 198 47 286 47 c 0
 405 47 498 150 498 281 c 4
 498 366 446 415 351 415 c 0
 254 415 139 323 139 185 c 0
EndSplineSet
EndChar

StartChar: seven
Encoding: 55 55 76
Width: 525
VWidth: 0
Flags: HMW
LayerCount: 2
Fore
SplineSet
144 645 m 1
 153 700 l 1
 643 700 l 1
 564 645 l 1
 144 645 l 1
579 700 m 5
 643 700 l 1
 163 0 l 1
 96 0 l 1
 579 700 l 5
EndSplineSet
EndChar

StartChar: plus
Encoding: 43 43 77
Width: 615
VWidth: 0
Flags: HMW
LayerCount: 2
Fore
SplineSet
106 230 m 5
 114 280 l 5
 599 280 l 5
 591 230 l 5
 106 230 l 5
370 500 m 5
 421 500 l 5
 335 10 l 5
 284 10 l 5
 370 500 l 5
EndSplineSet
EndChar

StartChar: percent
Encoding: 37 37 79
Width: 751
VWidth: 0
Flags: HMW
LayerCount: 2
Fore
SplineSet
175.8828125 535.853515625 m 0
 175.8828125 473.458007812 208.250976562 437 271 437 c 0
 348.7578125 437 404.163085938 494.088867188 404.163085938 564.627929688 c 0
 404.163085938 626.765625 372.556640625 663 310 663 c 0
 232.407226562 663 175.8828125 606.236328125 175.8828125 535.853515625 c 0
318 708 m 0
 401.4140625 708 450.90625 654.803710938 450.90625 571.581054688 c 0
 450.90625 464.260742188 359.3828125 392 263 392 c 0
 179.4296875 392 129.134765625 445.396484375 129.134765625 528.83203125 c 0
 129.134765625 636.01953125 221.76171875 708 318 708 c 0
469.8828125 135.853515625 m 0
 469.8828125 73.4580078125 502.250763872 37 565 37 c 0
 642.758103665 37 698.163085938 94.0888671875 698.163085938 164.627929688 c 0
 698.163085938 226.765625 666.556683826 263 604 263 c 0
 526.40696958 263 469.8828125 206.236328125 469.8828125 135.853515625 c 0
612 308 m 0
 695.414193973 308 744.90625 254.803710938 744.90625 171.581054688 c 0
 744.90625 64.2607421875 653.38261695 -8 557 -8 c 0
 473.429232499 -8 423.134765625 45.396484375 423.134765625 128.83203125 c 0
 423.134765625 236.01953125 515.761301324 308 612 308 c 0
706 700 m 1
 761 700 l 1
 168 0 l 1
 113 0 l 1
 706 700 l 1
EndSplineSet
EndChar

StartChar: ampersand
Encoding: 38 38 80
Width: 675
VWidth: 0
Flags: HMW
LayerCount: 2
Fore
SplineSet
314 344 m 1
 279.868280426 397.757458329 241.367907297 443.505718476 241.367907297 516.03703398 c 0
 241.367907297 637.717335411 332.024414062 709 439 709 c 0
 554 709 590 634 590 578 c 1
 537 568 l 1
 537 614 510 658 430 658 c 0
 351.375 658 294.15234375 595.734375 294.15234375 519.436523438 c 0
 294.15234375 475.797851562 311.60623817 440.843490887 347 385 c 1
 655 0 l 1
 590 0 l 1
 314 344 l 1
590 578 m 1
 590 452 464 406 380 371 c 0
 295.592474267 335.406465052 137.771484375 305.765625 137.771484375 165.375976562 c 4
 137.771484375 93.2783203125 198.99316018 39 289 39 c 0
 456 39 597 208 676 308 c 1
 713 277 l 1
 616 157 473 -8 284 -8 c 0
 171.354462045 -8 80.6357421875 45.03515625 80.6357421875 157.517578125 c 0
 80.6357421875 323.880859375 271.98602946 374.267284205 356 407 c 0
 437 439 537 482 537 568 c 1
 590 578 l 1
EndSplineSet
EndChar

StartChar: question
Encoding: 63 63 81
Width: 557
VWidth: 0
Flags: HMW
LayerCount: 2
Fore
SplineSet
274 350 m 1
 337 350 l 1
 295 170 l 1
 262 170 l 1
 274 350 l 1
517.717773438 538.869140625 m 0
 517.717773438 609.862304688 464.4765625 653 383 653 c 0
 306 653 245 616 197 556 c 1
 160 593 l 1
 218 663 290 708 389 708 c 0
 499.345703125 708 574.493164062 631.423828125 574.493164062 536.234375 c 0
 574.493164062 379.127929688 421.883789062 305 298 305 c 1
 281 350 l 1
 416.890625 350 517.717773438 420.525390625 517.717773438 538.869140625 c 0
EndSplineSet
Refer: 54 46 S 1 0 0 1 95 0 2
EndChar

StartChar: parenleft
Encoding: 40 40 82
Width: 280
VWidth: 0
Flags: HMW
LayerCount: 2
Fore
SplineSet
343 780 m 1
 388 780 l 1
 257.246346145 575.697415851 180 352.399414062 180 71.19140625 c 4
 180 -19.681640625 190.899956212 -117.840759813 215 -200 c 1
 170 -200 l 1
 137.440312671 -109.556424086 122.694935599 -11.841701128 122.694935599 88.7599786093 c 0
 122.694935599 372.886119226 203.617050712 582.759977422 343 780 c 1
EndSplineSet
EndChar

StartChar: asterisk
Encoding: 42 42 84
Width: 592
VWidth: 0
Flags: HMW
LayerCount: 2
Fore
SplineSet
394 700 m 1
 444 700 l 1
 405 505 l 1
 365 505 l 1
 394 700 l 1
578 589 m 1
 585 541 l 1
 388 486 l 1
 382 524 l 1
 578 589 l 1
494 361 m 5
 450 336 l 1
 368 496 l 1
 402 516 l 5
 494 361 l 5
261 332 m 1
 224 363 l 1
 370 518 l 1
 400 492 l 1
 261 332 l 1
198 541 m 1
 222 589 l 1
 395 524 l 1
 376 486 l 1
 198 541 l 1
EndSplineSet
EndChar

StartChar: less
Encoding: 60 60 85
Width: 640
VWidth: 0
Flags: HMW
LayerCount: 2
Fore
SplineSet
112 265 m 1
 149 265 l 1
 146 250 l 1
 109 250 l 1
 112 265 l 1
157 237 m 5
 112 265 l 1
 662 495 l 1
 653 442 l 1
 157 237 l 5
109 250 m 1
 165 280 l 5
 587 65 l 1
 579 20 l 1
 109 250 l 1
EndSplineSet
EndChar

StartChar: bracketleft
Encoding: 91 91 87
Width: 300
VWidth: 0
Flags: HMW
LayerCount: 2
Fore
SplineSet
111 -215 m 5
 120 -165 l 5
 251 -165 l 1
 242 -215 l 1
 111 -215 l 5
279 735 m 5
 287 785 l 5
 418 785 l 1
 410 735 l 1
 279 735 l 5
238 785 m 1
 292 785 l 5
 116 -215 l 5
 62 -215 l 1
 238 785 l 1
EndSplineSet
EndChar

StartChar: asciicircum
Encoding: 94 94 89
Width: 510
VWidth: 0
Flags: HMW
LayerCount: 2
Fore
SplineSet
365 710 m 1
 395 710 l 1
 397 690 l 1
 357 690 l 1
 365 710 l 1
355 690 m 5
 395 710 l 1
 526 460 l 1
 469 460 l 5
 355 690 l 5
365 710 m 1
 404 690 l 1
 208 460 l 1
 146 460 l 1
 365 710 l 1
EndSplineSet
EndChar

StartChar: grave
Encoding: 96 96 91
Width: 375
VWidth: 0
Flags: HMW
LayerCount: 2
Fore
SplineSet
201 660 m 1
 250 700 l 1
 395 540 l 1
 371 520 l 5
 201 660 l 1
EndSplineSet
EndChar

StartChar: braceleft
Encoding: 123 123 92
Width: 321
VWidth: 0
Flags: HMW
LayerCount: 2
Fore
SplineSet
151 315 m 1
 142 265 l 1
 127 265 l 1
 136 315 l 1
 151 315 l 1
149 305 m 1
 228 305 215 179 199 90 c 1
 154 150 l 1
 167 226 155 255 127 265 c 1
 127 265 143 290 149 305 c 1
196 -200 m 1
 235 -150 l 1
 265 -150 l 1
 256 -200 l 1
 196 -200 l 1
115 -70 m 1
 154 150 l 1
 199 90 l 1
 169 -80 l 1
 115 -70 l 1
235 -150 m 1
 196 -200 l 1
 132 -200 98 -169 115 -70 c 1
 169 -80 l 1
 159 -136 180 -150 230 -150 c 2
 235 -150 l 1
136 315 m 1
 168 325 191 354 204 430 c 1
 269 490 l 1
 253 401 222 275 143 275 c 1
 143 291 136 315 136 315 c 1
369 780 m 1
 429 780 l 1
 420 730 l 1
 390 730 l 1
 369 780 l 1
242 650 m 5
 299 660 l 1
 269 490 l 1
 204 430 l 1
 242 650 l 5
390 730 m 1
 385 730 l 2
 335 730 309 716 299 660 c 1
 242 650 l 5
 259 749 305 780 369 780 c 1
 390 730 l 1
EndSplineSet
EndChar

StartChar: asciitilde
Encoding: 126 126 94
Width: 575
VWidth: 0
Flags: HMW
LayerCount: 2
Fore
SplineSet
146 176 m 1
 100 181 l 1
 99 188 99 196 101 205 c 0
 113 273 169 327 238 327 c 4
 299 327 327 293 358 261 c 4
 382 236 400 217 438 217 c 0
 477 217 506 250 513 292 c 0
 514 300 516 313 514 323 c 1
 562 318 l 1
 563 310 563 300 561 290 c 0
 550 225 504 172 439 172 c 0
 385 172 353 198 321 230 c 0
 296 254 273 283 233 283 c 0
 190 283 154 246 146 198 c 0
 145 191 144 184 146 176 c 1
EndSplineSet
EndChar

StartChar: sterling
Encoding: 163 163 97
Width: 522
VWidth: 0
Flags: HMW
LayerCount: 2
Fore
SplineSet
103 370 m 1
 463 370 l 1
 454 320 l 1
 94 320 l 1
 103 370 l 1
35 0 m 1
 135 55 l 1
 498 55 l 1
 488 0 l 1
 35 0 l 1
524 489 m 1
 524.979206742 496.942454682 525.484909363 505.050635805 525.484909363 513.194461423 c 0
 525.484909363 579.901458876 491.55512809 649 406 649 c 0
 319.007020221 649 248.216018009 593.947399619 248.216018009 488.808345598 c 0
 248.216018009 407.519173453 308.784179688 372.829101562 308.784179688 284.1484375 c 0
 308.784179688 160.479492188 183.013671875 50.5166015625 103 30 c 5
 35 0 l 1
 152.613715483 103.418956718 249.939617689 166.295632027 249.939617689 273.103999753 c 0
 249.939617689 343.052388381 184.291992188 382.737304688 184.291992188 487.528320312 c 0
 184.291992188 622.724609375 289.83203125 708 412 708 c 0
 543.1015625 708 581.66622692 606.908497293 581.66622692 528.157971933 c 0
 581.66622692 517.605135155 581.063515737 507.453473218 580 498 c 1
 524 489 l 1
EndSplineSet
EndChar

StartChar: currency
Encoding: 164 164 98
Width: 565
VWidth: 0
Flags: HMW
LayerCount: 2
Fore
SplineSet
144.310307482 259.764715272 m 0
 144.310307482 164.801443314 210.228879806 105 301 105 c 0
 411.784722399 105 525.689692518 197.93755819 525.689692518 340.235284728 c 0
 525.689692518 435.198556686 459.771120194 495 369 495 c 0
 258.215277601 495 144.310307482 402.06244181 144.310307482 259.764715272 c 0
125 508 m 1
 171 548 l 1
 244 459 l 1
 197 420 l 1
 125 508 l 1
83 52 m 1
 51 92 l 1
 155 180 l 1
 188 141 l 1
 83 52 l 1
515 420 m 1
 483 459 l 1
 588 548 l 1
 620 508 l 1
 515 420 l 1
427 141 m 1
 473 180 l 1
 546 92 l 1
 500 52 l 1
 427 141 l 1
373 540 m 0
 492.286132812 540 577.315976459 461.14369766 577.315976459 346.893432666 c 0
 577.315976459 178.086779419 441.95703125 60 298 60 c 4
 178.713867188 60 92.6840235412 138.85630234 92.6840235412 253.106567334 c 0
 92.6840235412 421.913220581 229.04296875 540 373 540 c 0
EndSplineSet
EndChar

StartChar: brokenbar
Encoding: 166 166 100
Width: 244
VWidth: 0
Flags: HMW
LayerCount: 2
Fore
SplineSet
223 695 m 1
 267 695 l 5
 224 455 l 5
 180 455 l 1
 223 695 l 1
187 245 m 5
 145 5 l 5
 101 5 l 1
 143 245 l 1
 187 245 l 5
EndSplineSet
EndChar

StartChar: section
Encoding: 167 167 101
Width: 408
VWidth: 0
Flags: HMW
LayerCount: 2
Fore
SplineSet
100 140 m 1
 102 84 149 39 218 39 c 0
 267.486683007 39 338.184152109 56.9351029234 338.184152109 135.518296443 c 0
 338.184152109 186.062563424 276.427009338 205.531281712 231 225 c 0
 178.394580172 247.29043213 129.763671875 285.145507812 129.763671875 345.500976562 c 0
 129.763671875 429.186523438 205.073957776 489 314 489 c 1
 311 468 l 1
 248.548771007 457.92722113 187.671513921 426.189502703 187.671513921 354.79460449 c 0
 187.671513921 299.123689178 252.529068008 275.42318238 296 256 c 0
 350.427117015 231.909308862 392.913085938 193.837890625 392.913085938 140.4765625 c 0
 392.913085938 37.6630859375 307.789426413 -8 209 -8 c 0
 124 -8 53 48 52 123 c 1
 100 140 l 1
439 594 m 1
 426 632 388 661 331 661 c 0
 282.144041987 661 222.276038416 638.208622322 222.276038416 580.907828447 c 0
 222.276038416 535.190359675 293.552814975 510.859380543 338 491 c 0
 392.427117015 466.909308862 434.913085938 432.818359375 434.913085938 380.315429688 c 0
 434.913085938 296.06640625 353.398998356 241 252 241 c 1
 257 266 l 1
 309.945106704 266 380.184152109 326.078697986 380.184152109 375.518296443 c 0
 380.184152109 426.062563424 318.427009338 445.531281712 273 465 c 0
 220.302628765 487.329394591 170.795898438 527.265625 170.795898438 576.135742188 c 4
 170.795898438 668.637695312 258.641824879 708 338 708 c 0
 411 708 474 671 483 620 c 1
 439 594 l 1
EndSplineSet
EndChar

StartChar: copyright
Encoding: 169 169 103
Width: 800
VWidth: 0
Flags: HMW
LayerCount: 2
Fore
SplineSet
131.437687624 288.022615522 m 0
 131.437687624 132.638106827 241.79141662 25 404 25 c 0
 599.148970365 25 792.526736264 183.845072546 792.526736264 411.6023678 c 0
 792.526736264 567.188678377 681.339046619 675 519 675 c 0
 323.717100137 675 131.437687624 515.897533905 131.437687624 288.022615522 c 0
522 710 m 0
 707.657226562 710 828.28125 586.579101562 828.28125 414.326171875 c 0
 828.28125 158.708007812 617.5546875 -10 401 -10 c 0
 215.475585938 -10 95.6826171875 113.247070312 95.6826171875 285.293945312 c 0
 95.6826171875 541.02734375 309.310546875 710 522 710 c 0
EndSplineSet
Refer: 3 67 S 0.6 0 0 0.6 201 140 2
EndChar

StartChar: registered
Encoding: 174 174 104
Width: 800
VWidth: 0
Flags: HMW
LayerCount: 2
Fore
SplineSet
131.437687624 288.022615522 m 0
 131.437687624 132.638106827 241.79141662 25 404 25 c 0
 599.148970365 25 792.526736264 183.845072546 792.526736264 411.6023678 c 0
 792.526736264 567.188678377 681.339046619 675 519 675 c 0
 323.717100137 675 131.437687624 515.897533905 131.437687624 288.022615522 c 0
522 710 m 0
 707.657226562 710 828.28125 586.579101562 828.28125 414.326171875 c 0
 828.28125 158.708007812 617.5546875 -10 401 -10 c 0
 215.475585938 -10 95.6826171875 113.247070312 95.6826171875 285.293945312 c 0
 95.6826171875 541.02734375 309.310546875 710 522 710 c 0
EndSplineSet
Refer: 13 82 S 0.6 0 0 0.6 266 150 2
EndChar

StartChar: logicalnot
Encoding: 172 172 110
Width: 620
VWidth: 0
Flags: HMW
LayerCount: 2
Fore
SplineSet
611 360 m 5
 661 360 l 5
 641 175 l 5
 591 175 l 5
 611 360 l 5
EndSplineSet
Refer: 62 45 N 2.45 0 0 1 52.75 100 2
EndChar

StartChar: plusminus
Encoding: 177 177 113
Width: 615
VWidth: 0
Flags: HMW
LayerCount: 2
Fore
SplineSet
80 85 m 5
 87 125 l 5
 572 125 l 5
 565 85 l 5
 80 85 l 5
128 356 m 5
 135 395 l 5
 620 395 l 5
 613 356 l 5
 128 356 l 5
386 570 m 5
 431 570 l 5
 362 180 l 5
 317 180 l 5
 386 570 l 5
EndSplineSet
EndChar

StartChar: acute
Encoding: 180 180 116
Width: 375
VWidth: 0
Flags: HMW
LayerCount: 2
Fore
SplineSet
406 660 m 1
 198 520 l 5
 170 540 l 1
 358 700 l 1
 406 660 l 1
EndSplineSet
EndChar

StartChar: paragraph
Encoding: 182 182 118
Width: 538
VWidth: 0
Flags: HMW
LayerCount: 2
Fore
SplineSet
404 660 m 1
 411 700 l 1
 571 700 l 5
 564 660 l 5
 404 660 l 1
561 700 m 5
 601 700 l 5
 439 -220 l 5
 399 -220 l 5
 561 700 l 5
411 700 m 1
 451 700 l 1
 289 -220 l 1
 249 -220 l 1
 411 700 l 1
336 270 m 1
 211 270 121 346 146 485 c 0
 171 624 286 700 411 700 c 1
 336 270 l 1
EndSplineSet
EndChar

StartChar: cedilla
Encoding: 184 184 121
Width: 350
Flags: HMW
LayerCount: 2
Fore
SplineSet
196 60 m 1
 247 60 l 1
 191.799804688 -53.7998046875 l 1
 120.799804688 -97.7998046875 l 1
 196 60 l 1
265.200195312 -126 m 1
 218.400390625 -126 l 5
 218.400390625 -102.400390625 202.200195312 -80 168.200195312 -80 c 0
 158 -80 143.400390625 -81.7998046875 120.799804688 -97.7998046875 c 1
 150.799804688 -68.2001953125 l 1
 176.400390625 -52.2001953125 188.799804688 -52 202.200195312 -52 c 0
 235.200195312 -52 265.200195312 -86.599609375 265.200195312 -126 c 1
265.200195312 -126 m 1
 265.200195312 -187.400390625 223.200195312 -220 168.200195312 -220 c 0
 130.799804688 -220 106.400390625 -209.799804688 78.7998046875 -181.799804688 c 1
 112 -152.400390625 l 1
 130.599609375 -168.400390625 142 -176 168.200195312 -176 c 0
 202.200195312 -176 218.400390625 -149.599609375 218.400390625 -126 c 5
 265.200195312 -126 l 1
EndSplineSet
Validated: 5
EndChar

StartChar: multiply
Encoding: 215 215 123
Width: 596
VWidth: 0
Flags: HMW
LayerCount: 2
Fore
SplineSet
324 273 m 1
 369 273 l 1
 362 232 l 1
 317 232 l 1
 324 273 l 1
330 231 m 1
 369 264 l 1
 534 69 l 1
 489 31 l 1
 330 231 l 1
152 441 m 1
 197 479 l 1
 356 279 l 1
 317 246 l 1
 152 441 l 1
367 244 m 1
 336 281 l 1
 567 481 l 1
 602 439 l 1
 367 244 l 1
119 29 m 5
 84 71 l 1
 319 266 l 1
 350 229 l 5
 119 29 l 5
EndSplineSet
EndChar

StartChar: Thorn
Encoding: 222 222 125
Width: 550
VWidth: 0
Flags: HMW
LayerCount: 2
Fore
SplineSet
295 140 m 1
 304 195 l 1
 394 195 486 244 505 350 c 4
 524 456 449 504 359 504 c 1
 369 560 l 1
 504 560 583 479 560 350 c 4
 537 221 430 140 295 140 c 1
122 140 m 1
 131 195 l 1
 304 195 l 1
 295 140 l 1
 122 140 l 1
186 504 m 1
 196 560 l 1
 369 560 l 1
 359 504 l 1
 186 504 l 1
203 700 m 1
 258 700 l 1
 135 0 l 1
 80 0 l 1
 203 700 l 1
EndSplineSet
EndChar

StartChar: circumflex
Encoding: 710 710 128
Width: 480
VWidth: 0
Flags: HMW
LayerCount: 2
Fore
SplineSet
344 692 m 1
 369 730 l 1
 504 590 l 1
 471 562 l 1
 344 692 l 1
369 730 m 1
 384 688 l 5
 211 558 l 5
 184 590 l 1
 369 730 l 1
EndSplineSet
EndChar

StartChar: ogonek
Encoding: 731 731 129
Width: 260
VWidth: 0
Flags: HMW
LayerCount: 2
Fore
SplineSet
206 -144 m 1
 237 -180 l 1
 215 -203 182 -220 139 -220 c 0
 55 -220 16 -169 16 -120 c 5
 68 -110 l 1
 68 -156 101 -174 141 -174 c 4
 167 -174 190 -163 206 -144 c 1
68 -110 m 1
 16 -120 l 1
 16 -51 77.7509765625 -11 147.750976562 25 c 1
 158.750976562 0 l 1
 126.690429688 -22.27734375 68.296875 -62.6220703125 68 -110 c 1
EndSplineSet
EndChar

StartChar: tilde
Encoding: 732 732 130
Width: 530
VWidth: 0
Flags: HMW
LayerCount: 2
Fore
SplineSet
190 625 m 1
 209 674 263 707 308 707 c 0
 347 707 381 677 392 664 c 0
 411 640 427 633 445 633 c 0
 484 633 512 671 538 703 c 1
 571 685 l 1
 549 648 490 592 440 592 c 4
 406 592 381 608 366 626 c 0
 348 648 330 664 300 664 c 0
 259 664 226 621 223 606 c 1
 190 625 l 1
EndSplineSet
EndChar

StartChar: ring
Encoding: 730 730 131
Width: 278
VWidth: 0
Flags: HMW
LayerCount: 2
Fore
SplineSet
178 785 m 4
 178 844.5 219.5 885 277 885 c 4
 334.5 885 376 844.5 376 785 c 4
 376 725.5 334.5 685 277 685 c 4
 219.5 685 178 725.5 178 785 c 4
218.5 785 m 4
 218.5 747 242 722.5 277 722.5 c 4
 312 722.5 335.5 747 335.5 785 c 4
 335.5 823 312 847.5 277 847.5 c 4
 242 847.5 218.5 823 218.5 785 c 4
EndSplineSet
EndChar

StartChar: quoteright
Encoding: 8217 8217 138
Width: 295
VWidth: 0
Flags: HMW
LayerCount: 2
Fore
SplineSet
296 700 m 1
 368 700 l 1
 210 470 l 5
 173 470 l 1
 296 700 l 1
EndSplineSet
EndChar

StartChar: perthousand
Encoding: 8240 8240 143
Width: 1131
VWidth: 0
Flags: HMW
LayerCount: 2
Fore
SplineSet
852 150 m 4
 841 85 873 37 945 37 c 4
 1017 37 1065 85 1076 150 c 4
 1087 215 1056 263 984 263 c 4
 912 263 863 215 852 150 c 4
806 150 m 4
 822 239 897 308 992 308 c 4
 1087 308 1138 239 1122 150 c 4
 1106 61 1032 -8 937 -8 c 4
 842 -8 790 61 806 150 c 4
472 150 m 4
 461 85 493 37 565 37 c 4
 637 37 685 85 696 150 c 4
 707 215 676 263 604 263 c 4
 532 263 483 215 472 150 c 4
426 150 m 4
 442 239 517 308 612 308 c 4
 707 308 758 239 742 150 c 4
 726 61 652 -8 557 -8 c 4
 462 -8 410 61 426 150 c 4
178 550 m 4
 167 485 198 437 270 437 c 4
 342 437 391 485 402 550 c 4
 413 615 382 663 310 663 c 4
 238 663 189 615 178 550 c 4
132 550 m 4
 148 639 223 708 318 708 c 4
 413 708 464 639 448 550 c 4
 432 461 357 392 262 392 c 4
 167 392 116 461 132 550 c 4
706 700 m 5
 761 700 l 5
 168 0 l 5
 113 0 l 5
 706 700 l 5
EndSplineSet
EndChar

StartChar: guilsinglleft
Encoding: 8249 8249 144
Width: 350
VWidth: 0
Flags: HMW
LayerCount: 2
Fore
SplineSet
119 232 m 5
 85 255 l 1
 335 480 l 1
 361 442 l 5
 119 232 l 5
85 255 m 1
 122 282 l 1
 288 62 l 1
 255 30 l 1
 85 255 l 1
EndSplineSet
EndChar

StartChar: uni2031
Encoding: 8241 8241 146
Width: 1511
VWidth: 0
Flags: HMW
LayerCount: 2
Fore
SplineSet
1232 150 m 0
 1221 85 1253 37 1325 37 c 0
 1397 37 1445 85 1456 150 c 0
 1467 215 1436 263 1364 263 c 0
 1292 263 1243 215 1232 150 c 0
1186 150 m 0
 1202 239 1277 308 1372 308 c 0
 1467 308 1518 239 1502 150 c 0
 1486 61 1412 -8 1317 -8 c 0
 1222 -8 1170 61 1186 150 c 0
852 150 m 0
 841 85 873 37 945 37 c 0
 1017 37 1065 85 1076 150 c 0
 1087 215 1056 263 984 263 c 0
 912 263 863 215 852 150 c 0
806 150 m 0
 822 239 897 308 992 308 c 0
 1087 308 1138 239 1122 150 c 0
 1106 61 1032 -8 937 -8 c 0
 842 -8 790 61 806 150 c 0
472 150 m 0
 461 85 493 37 565 37 c 0
 637 37 685 85 696 150 c 0
 707 215 676 263 604 263 c 0
 532 263 483 215 472 150 c 0
426 150 m 0
 442 239 517 308 612 308 c 0
 707 308 758 239 742 150 c 0
 726 61 652 -8 557 -8 c 0
 462 -8 410 61 426 150 c 0
178 550 m 0
 167 485 198 437 270 437 c 0
 342 437 391 485 402 550 c 0
 413 615 382 663 310 663 c 0
 238 663 189 615 178 550 c 0
132 550 m 0
 148 639 223 708 318 708 c 0
 413 708 464 639 448 550 c 0
 432 461 357 392 262 392 c 0
 167 392 116 461 132 550 c 0
706 700 m 1
 761 700 l 1
 168 0 l 1
 113 0 l 1
 706 700 l 1
EndSplineSet
EndChar

StartChar: Euro
Encoding: 8364 8364 148
Width: 700
VWidth: 0
Flags: HMW
LayerCount: 2
Fore
SplineSet
157 350 m 0
 128 177 200 40 348 40 c 0
 405 40 451 58 509 98 c 5
 495 31 l 1
 445 5 392 -10 338 -10 c 0
 164 -10 65 141 102 350 c 0
 139 559 291 710 465 710 c 0
 519 710 568 695 608 669 c 1
 590 608 l 5
 546 648 508 660 451 660 c 0
 303 660 184.370880437 513.281459156 157 350 c 0
EndSplineSet
Refer: 62 45 N 2.375 0 0 0.64 -26.875 159 2
Refer: 62 45 N 2.505 0 0 0.64 -27.525 279 2
EndChar

StartChar: fraction
Encoding: 8260 8260 149
Width: 705
VWidth: 0
Flags: HMW
LayerCount: 2
Fore
SplineSet
718 700 m 1
 768 700 l 1
 110 0 l 5
 60 0 l 1
 718 700 l 1
EndSplineSet
EndChar

StartChar: AE
Encoding: 198 198 191
Width: 975
VWidth: 0
Flags: HMW
LayerCount: 2
Fore
SplineSet
262 225 m 1
 270 275 l 1
 580 275 l 1
 572 225 l 1
 262 225 l 1
603 700 m 1
 635 660 l 1
 85 0 l 1
 20 0 l 1
 603 700 l 1
552 0 m 1
 561 50 l 1
 914 50 l 1
 905 0 l 1
 552 0 l 1
635 651 m 5
 603 700 l 1
 1028 700 l 1
 1020 651 l 1
 635 651 l 5
615 355 m 1
 623 405 l 1
 956 405 l 1
 948 355 l 1
 615 355 l 1
628 700 m 1
 683 700 l 1
 560 0 l 1
 505 0 l 1
 628 700 l 1
EndSplineSet
EndChar

StartChar: germandbls
Encoding: 223 223 219
Width: 570
VWidth: 0
Flags: HMW
LayerCount: 2
Fore
SplineSet
197 606 m 1
 247 606 l 1
 140 0 l 1
 90 0 l 1
 197 606 l 1
328 430 m 1
 334 465 l 1
 444 465 519 540 529 596 c 0
 546 692 497 738 407 738 c 0
 327 738 260 682 247 606 c 1
 197 606 l 1
 216 715 311 788 416 788 c 0
 551 788 601 715 582 606 c 0
 565 507 483 430 328 430 c 1
279 40 m 1
 379 40 481 113 501 229 c 0
 521 345 436 420 326 420 c 1
 332 455 l 5
 487 455 580 364 555 225 c 0
 530 86 405 -10 270 -10 c 1
 279 40 l 1
EndSplineSet
EndChar

StartChar: ae
Encoding: 230 230 220
Width: 818
VWidth: 0
Flags: HMW
LayerCount: 2
Fore
SplineSet
418 330 m 1
 468 330 l 1
 411 130 l 5
 385 140 l 1
 418 330 l 1
167 375 m 1
 145 413 l 1
 183 438 248 470 331 470 c 0
 441 470 474 419 458 330 c 1
 418 330 l 1
 430 396 392 422 322 422 c 0
 246 422 192 391 167 375 c 1
120 135 m 0
 109 74 149 36 219 36 c 0
 299 36 377 94 392 180 c 1
 411 130 l 1
 395 41 291 -10 196 -10 c 0
 131 -10 51 31 69 135 c 0
 86 232 195 281 286 281 c 0
 364 281 414 254 434 230 c 1
 429 202 l 1
 385 227 330 240 282 240 c 0
 198 240 132 201 120 135 c 0
411 230 m 1
 435 270 l 1
 456 260 l 1
 451 230 l 1
 411 230 l 1
447 223 m 1
 455 268 l 1
 814 268 l 1
 826 223 l 1
 447 223 l 1
826 223 m 1
 780 250 l 1
 795 336 754 421 652 421 c 0
 552 421 471 346 456 260 c 1
 411 230 l 1
 436 369 526 468 661 468 c 0
 783 468 855 379 829 234 c 0
 829 232 828 228 826 223 c 1
411 230 m 1
 449 230 l 1
 430 124 485 41 595 41 c 0
 657 41 726 78 770 139 c 1
 804 107 l 1
 746 37 676 -8 582 -8 c 0
 457 -8 386 91 411 230 c 1
EndSplineSet
EndChar

StartChar: dotlessi
Encoding: 305 305 227
Width: 260
VWidth: 0
Flags: HMW
LayerCount: 2
Fore
SplineSet
186 460 m 5
 236 460 l 5
 155 0 l 5
 105 0 l 5
 186 460 l 5
EndSplineSet
EndChar

StartChar: kgreenlandic
Encoding: 312 312 228
Width: 400
VWidth: 0
Flags: HMW
LayerCount: 2
Fore
SplineSet
148 270 m 1
 218 270 l 1
 410 0 l 1
 340 0 l 1
 148 270 l 1
401 460 m 1
 471 460 l 1
 218 270 l 1
 148 270 l 1
 401 460 l 1
151 460 m 5
 201 460 l 5
 120 0 l 1
 70 0 l 1
 151 460 l 5
EndSplineSet
EndChar

StartChar: thorn
Encoding: 254 254 243
Width: 550
VWidth: 0
Flags: HMW
LayerCount: 2
Fore
SplineSet
258 780 m 1
 81 -220 l 5
 31 -220 l 5
 208 780 l 1
 258 780 l 1
561 230 m 0
 535 83 421 -8 296 -8 c 0
 171 -8 108 91 133 230 c 0
 158 369 255 468 380 468 c 0
 505 468 587 377 561 230 c 0
510 230 m 0
 532 356 466 418 366 418 c 0
 286 418 183 356 161 230 c 0
 139 104 219 42 299 42 c 0
 399 42 488 104 510 230 c 0
EndSplineSet
EndChar

StartChar: breve
Encoding: 728 728 247
Width: 546
VWidth: 0
Flags: HMW
LayerCount: 2
Fore
SplineSet
265 850 m 1
 312 850 l 1
 304 804 333 755 403 755 c 4
 473 755 522 804 530 850 c 1
 581 850 l 1
 569 781 503 710 398 710 c 0
 293 710 253 781 265 850 c 1
EndSplineSet
EndChar

StartChar: eth
Encoding: 240 240 302
Width: 556
VWidth: 0
Flags: HMW
LayerCount: 2
Fore
SplineSet
359 700 m 5
 526 387 l 5
 471 375 l 5
 292 700 l 5
 359 700 l 5
552 230 m 4
 527 86 412 -8 277 -8 c 4
 142 -8 61 86 86 230 c 4
 111 369 220 462 328 462 c 4
 411 462 470 430 479 402 c 5
 505 387 510 418 526 387 c 4
 547 347 562 287 552 230 c 4
496 230 m 4
 516 346 441 415 351 415 c 4
 241 415 161 336 142 230 c 4
 123 124 176 47 286 47 c 4
 386 47 477 124 496 230 c 4
EndSplineSet
Refer: 62 45 N 1.5 0 0 1 137.5 320 2
EndChar

StartChar: OE
Encoding: 338 338 308
Width: 937
VWidth: 0
Flags: HW
LayerCount: 2
Fore
SplineSet
641.998046875 700 m 5
 632.998046875 648 l 5
 499.998046875 648 l 5
 503.998046875 700 l 5
 641.998046875 700 l 5
527.998046875 52 m 5
 518.998046875 0 l 5
 390.998046875 0 l 5
 394.998046875 52 l 5
 527.998046875 52 l 5
499.998046875 648 m 5
 318.754882812 648 153.345703125 503.7421875 153.345703125 287.1796875 c 4
 153.345703125 144.344726562 247.623046875 52 394.998046875 52 c 5
 390.998046875 0 l 5
 205.180664062 0 95.2099609375 115.336914062 95.2099609375 282.845703125 c 4
 95.2099609375 537.984375 290.610351562 700 503.998046875 700 c 5
 499.998046875 648 l 5
557.998046875 0 m 5
 566.998046875 52 l 5
 889.998046875 52 l 5
 880.998046875 0 l 5
 557.998046875 0 l 5
671.998046875 648 m 5
 680.998046875 700 l 5
 1003.99804688 700 l 5
 994.998046875 648 l 5
 671.998046875 648 l 5
619.998046875 354 m 5
 629.998046875 406 l 5
 932.998046875 406 l 5
 922.998046875 354 l 5
 619.998046875 354 l 5
633.998046875 700 m 5
 688.998046875 700 l 5
 565.998046875 0 l 5
 510.998046875 0 l 5
 633.998046875 700 l 5
EndSplineSet
EndChar

StartChar: oe
Encoding: 339 339 309
Width: 898
VWidth: 0
Flags: HW
LayerCount: 2
Fore
SplineSet
334.709960938 468 m 0
 459.090820312 468 518.990234375 389.038085938 518.990234375 267.430664062 c 4
 518.990234375 112.064453125 400.24609375 -8 260.709960938 -8 c 0
 136.329101562 -8 66.4296875 70.9619140625 66.4296875 192.569335938 c 0
 66.4296875 347.935546875 195.173828125 468 334.709960938 468 c 0
117.498046875 203.435546875 m 0
 117.498046875 106.588867188 163.95703125 43 263.709960938 43 c 0
 368.119140625 43 477.8828125 134.700195312 477.8828125 256.139648438 c 0
 477.8828125 353.194335938 430.609375 417 330.709960938 417 c 0
 226.15234375 417 117.498046875 325.004882812 117.498046875 203.435546875 c 0
529.709960938 223 m 1
 537.709960938 268 l 1
 896.709960938 268 l 1
 908.709960938 223 l 1
 529.709960938 223 l 1
480.709960938 230 m 1
 517.709960938 270 l 1
 538.709960938 260 l 1
 533.709960938 230 l 1
 480.709960938 230 l 1
908.709960938 223 m 1
 862.709960938 250 l 1
 864.70703125 261.450195312 865.711914062 272.881835938 865.711914062 284.09765625 c 0
 865.711914062 357.126953125 823.129882812 421 734.709960938 421 c 0
 634.709960938 421 553.709960938 346 538.709960938 260 c 1
 480.709960938 230 l 1
 531.709960938 230 l 1
 529.229492188 216.16015625 528.009765625 202.711914062 528.009765625 189.790039062 c 0
 528.009765625 98.7412109375 582.072265625 41 677.709960938 41 c 0
 739.709960938 41 808.709960938 78 852.709960938 139 c 1
 886.709960938 107 l 1
 828.709960938 37 758.709960938 -8 674.709960938 -8 c 0
 558.59765625 -8 476.30078125 68.822265625 476.30078125 182.135742188 c 0
 476.30078125 356.854492188 599.6953125 468 733.709960938 468 c 0
 844.962890625 468 917.000976562 389.756835938 917.000976562 285.4609375 c 0
 917.000976562 265.489257812 916.258789062 241.872070312 908.709960938 223 c 1
EndSplineSet
EndChar

StartChar: a.alt
Encoding: 65536 -1 310
Width: 470
VWidth: 0
Flags: HW
LayerCount: 2
Fore
SplineSet
417.6328125 330 m 1
 467.6328125 330 l 1
 409.444335938 0 l 1
 359.444335938 0 l 1
 417.6328125 330 l 1
166.567382812 375 m 1
 144.267578125 413 l 1
 182.67578125 438 247.318359375 470 330.318359375 470 c 0
 440.318359375 470 483.326171875 419 467.6328125 330 c 1
 417.6328125 330 l 1
 429.270507812 396 391.854492188 422 321.854492188 422 c 0
 245.854492188 422 191.388671875 391 166.567382812 375 c 1
119 115 m 0
 119 68.0166015625 149 36 219 36 c 0
 299 36 376 94 391 180 c 1
 390 130 l 1
 374 41 286 -10 211 -10 c 4
 126 -10 67 32.4541015625 67 108 c 0
 67 225 184 281 275 281 c 0
 353 281 413 249 433 225 c 1
 428 202 l 1
 384 227 320 240 272 240 c 0
 188 240 119 191 119 115 c 0
EndSplineSet
EndChar
